<?xml version="1.0" encoding="utf-8"?>
<!-- Generator: Adobe Illustrator 23.1.0, SVG Export Plug-In . SVG Version: 6.00 Build 0)  -->
<svg version="1.1" id="Слой_1" xmlns="http://www.w3.org/2000/svg" xmlns:xlink="http://www.w3.org/1999/xlink" x="0px" y="0px"
	 viewBox="0 0 793.2 178.2" style="enable-background:new 0 0 793.2 178.2;" xml:space="preserve">
<style type="text/css">
	.st0{fill-rule:evenodd;clip-rule:evenodd;fill:#CF0077;}
	.st1{fill:#CF0077;}
</style>
<g>
	<g>
		<path class="st0" d="M59.07,125.6c0,0-5.06-24.25,12.31-28.35c-3.9-0.2-7.08-0.75-9.7-1.56C49.49,91.91,48.42,81.5,48.19,69.86
			c-0.16-7.74,0.38-15.18,0.38-15.18c7.86,0.99,18.39,1.58,25.76,4.24c7.84,2.83,12.98,8.19,14.19,18.23
			c1.21-10.04,6.35-15.39,14.19-18.23c7.36-2.66,17.9-3.25,25.76-4.24c0,0,0.54,7.45,0.38,15.18c-0.23,11.64-1.3,22.05-13.49,25.83
			c-2.61,0.81-5.8,1.36-9.7,1.56c17.37,4.11,12.31,28.35,12.31,28.35l-7.46-0.77c-10.61-1.1-18.07-1.74-21.99-16.19
			c-3.93,14.45-11.38,15.09-21.99,16.19L59.07,125.6z"/>
		<g>
			<path class="st1" d="M53.03,0C38.91,0,25.61,5.53,15.57,15.57C5.53,25.61,0,38.91,0,53.03v69.64l3.51-0.54
				c11.45-1.75,20.29-11.2,21.51-22.85l0.16-46.25c0-7.39,2.91-14.37,8.19-19.66c5.28-5.28,12.26-8.19,19.66-8.19h124V0H53.03z"/>
			<path class="st1" d="M151.88,81.27l-0.03,43.9c0,7.39-2.91,14.37-8.19,19.65c-5.28,5.28-12.27,8.19-19.66,8.19H0v25.19h124
				c14.12,0,27.42-5.53,37.47-15.56c10.04-10.04,15.57-23.35,15.57-37.47V55.53l-3.51,0.53C161.19,57.94,151.88,68.78,151.88,81.27z
				"/>
		</g>
	</g>
	<g>
		<polygon class="st0" points="378.18,67.32 378.18,0 420.2,0 420.2,14.62 394.93,14.62 394.93,67.32 		"/>
		<polygon class="st0" points="477.06,67.32 477.06,40.44 448.9,40.44 448.9,67.32 432.15,67.32 432.15,0 448.9,0 448.9,25.62 
			477.06,25.62 477.06,0 493.81,0 493.81,67.32 		"/>
		<polygon class="st0" points="601.15,67.32 601.15,14.62 580.04,14.62 580.04,0 639.12,0 639.12,14.62 617.91,14.62 617.91,67.32 
					"/>
		<polygon class="st1" points="552.45,67.31 552.45,26.85 522.7,67.31 508.57,67.31 508.57,0.01 525.33,0.01 525.33,40.07 
			554.6,0.01 569.21,0.01 569.21,67.31 		"/>
		<polygon class="st1" points="273.21,67.32 273.21,25.37 254.51,47.71 235.81,25.37 235.81,67.32 219.06,67.32 219.06,0 235.9,0 
			254.51,24.02 273.12,0 289.96,0 289.96,67.32 		"/>
		<path class="st1" d="M352.08,67.32l-4.63-11.88h-27.26l-4.63,11.88h-16.77L326.05,0h15.82l27.26,67.32H352.08z M325.33,42.26
			h16.98l-8.49-22.94L325.33,42.26z"/>
	</g>
	<g>
		<path class="st1" d="M399.42,178.2c-10.31,0-19.17-3.5-26.34-10.39c-7.17-6.89-10.8-15.24-10.8-24.83
			c0-9.59,3.63-17.94,10.8-24.83c7.17-6.89,16.04-10.39,26.34-10.39c3.55,0,6.97,0.47,10.18,1.39c3.21,0.92,5.88,2.05,7.96,3.34
			c2.09,1.3,3.94,2.62,5.5,3.91c1.55,1.29,2.68,2.41,3.34,3.32l0.89,1.12l-10.56,11.01c-0.14-0.18-0.31-0.39-0.5-0.63
			c-0.33-0.41-1.05-1.1-2.21-2.11c-1.14-0.99-2.34-1.89-3.57-2.66c-1.24-0.78-2.89-1.49-4.9-2.11c-2.01-0.62-4.08-0.93-6.14-0.93
			c-5.58,0-10.3,1.88-14.02,5.58c-3.72,3.7-5.6,8.41-5.6,13.99s1.88,10.3,5.6,14.02c3.72,3.72,8.43,5.6,14.02,5.6
			c3.45,0,6.76-0.74,9.83-2.2c3.06-1.45,5.32-2.95,6.69-4.45l1.74-1.87l10.1,11.04c-0.24,0.34-0.55,0.75-0.92,1.22
			c-0.47,0.59-1.59,1.67-3.34,3.19c-1.73,1.52-3.64,2.89-5.67,4.07c-2.02,1.17-4.72,2.24-8.04,3.18
			C406.49,177.72,403,178.2,399.42,178.2z"/>
		<path class="st0" d="M317.31,178c-10.18,0-18.73-3.43-25.39-10.2c-6.7-6.8-10.1-15.15-10.1-24.83c0-9.67,3.4-18.02,10.1-24.82
			c6.67-6.77,15.21-10.2,25.39-10.2c10.18,0,18.72,3.43,25.39,10.2c6.7,6.8,10.1,15.15,10.1,24.82c0,9.67-3.4,18.03-10.1,24.83
			C336.04,174.57,327.5,178,317.31,178z M317.31,123.36c-5.2,0-9.61,1.87-13.1,5.56c-3.42,3.62-5.15,8.35-5.15,14.06
			c0,5.71,1.73,10.44,5.15,14.06c3.49,3.69,7.89,5.56,13.1,5.56c5.21,0,9.46-1.82,13-5.56c3.48-3.68,5.25-8.41,5.25-14.06
			c0-5.64-1.77-10.37-5.25-14.06C326.77,125.18,322.52,123.36,317.31,123.36z"/>
		<polygon class="st0" points="604.23,176.64 604.23,123.95 583.82,123.95 583.82,109.32 641.49,109.32 641.49,123.95 
			620.98,123.95 620.98,176.64 		"/>
		<polygon class="st0" points="264.27,176.64 241.39,147.59 235.81,147.59 235.81,176.64 219.06,176.64 219.06,109.32 
			235.81,109.32 235.81,132.77 242.36,132.77 260.19,109.32 278.96,109.32 255.68,140.26 283.3,176.64 		"/>
		<polygon class="st0" points="522.52,176.64 522.52,109.32 571.29,109.32 571.29,123.95 539.28,123.95 539.28,135.33 
			567.61,135.33 567.61,149.37 539.28,149.37 539.28,162.02 571.29,162.02 571.29,176.64 		"/>
		<polygon class="st1" points="491.47,176.64 491.47,134.69 472.77,157.03 454.08,134.69 454.08,176.64 437.32,176.64 
			437.32,109.32 454.17,109.32 472.77,133.34 491.38,109.32 508.23,109.32 508.23,176.64 		"/>
		<polygon class="st1" points="697.9,176.63 697.9,136.17 668.14,176.63 654.02,176.63 654.02,109.33 670.78,109.33 670.78,149.39 
			700.05,109.33 714.66,109.33 714.66,176.63 		"/>
		<polygon class="st0" points="774.17,176.65 751.29,147.6 745.71,147.6 745.71,176.65 728.96,176.65 728.96,109.33 745.71,109.33 
			745.71,132.78 752.26,132.78 770.09,109.33 788.86,109.33 765.58,140.27 793.2,176.65 		"/>
	</g>
</g>
</svg>
