<svg width="143" height="36" viewBox="0 0 143 36" fill="none" xmlns="http://www.w3.org/2000/svg">
<g clip-path="url(#clip0)">
<path d="M17.4385 3.90393C17.8962 4.49371 18.2838 5.13467 18.5935 5.81393L9.81351 12.2699L6.14551 9.97593V7.21593L9.81351 9.50993L17.4385 3.90393V3.90393Z" fill="#21A038"/>
<path d="M2.40236 9.782C2.40236 9.658 2.40536 9.535 2.41136 9.412L0.188358 9.302C0.119477 10.6443 0.334102 11.986 0.818257 13.2398C1.30241 14.4936 2.04524 15.6314 2.99836 16.579L4.57436 15.007C3.88573 14.3223 3.33931 13.5081 2.96655 12.6114C2.59379 11.7147 2.40205 10.7531 2.40236 9.782V9.782Z" fill="url(#paint0_linear)"/>
<path d="M9.81205 2.38995C9.93605 2.38995 10.059 2.39395 10.182 2.39995L10.293 0.181953C8.94864 0.112624 7.60465 0.32629 6.34802 0.809131C5.0914 1.29197 3.95013 2.03323 2.99805 2.98495L4.57405 4.55795C5.26166 3.86987 6.07827 3.3242 6.97708 2.95218C7.8759 2.58016 8.83928 2.3891 9.81205 2.38995V2.38995Z" fill="url(#paint1_linear)"/>
<path d="M9.81303 17.174C9.68903 17.174 9.56603 17.171 9.44303 17.164L9.33203 19.382C10.6764 19.4513 12.0204 19.2376 13.2771 18.7548C14.5337 18.2719 15.6749 17.5307 16.627 16.579L15.051 15.007C14.3632 15.6946 13.5465 16.24 12.6477 16.6118C11.7489 16.9836 10.7857 17.1747 9.81303 17.174V17.174Z" fill="url(#paint2_linear)"/>
<path d="M13.9905 3.67994L15.8645 2.30194C14.1511 0.918671 12.0146 0.165999 9.8125 0.169937V2.38994C11.3035 2.38802 12.7601 2.83776 13.9905 3.67994V3.67994Z" fill="url(#paint3_linear)"/>
<path d="M19.4482 9.78096C19.4482 9.19296 19.3952 8.61796 19.2932 8.05896L17.2202 9.58296L17.2232 9.77996C17.2232 11.95 16.2802 13.905 14.7832 15.259L16.2782 16.909C17.2772 16.0098 18.0758 14.9105 18.622 13.6824C19.1681 12.4543 19.4496 11.125 19.4482 9.78096V9.78096Z" fill="#21A038"/>
<path d="M9.81297 17.1729C8.77818 17.1735 7.75476 16.9571 6.80879 16.5377C5.86281 16.1183 5.0153 15.5052 4.32097 14.7379L2.66797 16.2299C3.57137 17.2277 4.67408 18.0249 5.90482 18.5699C7.13556 19.1149 8.46695 19.3956 9.81297 19.3939V17.1739V17.1729Z" fill="url(#paint4_linear)"/>
<path d="M4.84376 4.30393L3.34776 2.65393C2.3486 3.553 1.54988 4.65233 1.00355 5.88041C0.457222 7.10849 0.175518 8.43781 0.176762 9.78193H2.40276C2.40276 7.61193 3.34576 5.65693 4.84376 4.30393Z" fill="url(#paint5_linear)"/>
<path d="M55.5423 5.8119L58.1173 3.9189H49.5043V15.2809H58.1173V13.3909H51.9613V10.4809H57.2123V8.5879H51.9613V5.8119H55.5423V5.8119ZM43.0003 8.3499H40.0093V5.8109H44.7853L47.3603 3.9179H37.5493V15.2799H42.6823C45.5613 15.2799 47.2113 13.9799 47.2113 11.7099C47.2113 9.5429 45.7153 8.3479 43.0003 8.3479V8.3499ZM42.5723 13.3909H40.0103V10.2419H42.5733C44.1333 10.2419 44.8593 10.7689 44.8593 11.8179C44.8593 12.8869 44.0893 13.3909 42.5733 13.3909H42.5723ZM65.0953 3.9189H60.4063V15.2809H62.8633V12.0619H65.0953C68.0893 12.0619 69.9473 10.4919 69.9473 7.9849C69.9473 5.4779 68.0873 3.9189 65.0953 3.9189V3.9189ZM65.0423 10.1719H62.8633V5.8119H65.0423C66.6163 5.8119 67.4853 6.5859 67.4853 7.9929C67.4853 9.3979 66.6163 10.1729 65.0423 10.1729V10.1719ZM33.3303 12.8209C32.7003 13.1689 31.9673 13.3509 31.2083 13.3509C28.9933 13.3509 27.3823 11.7719 27.3823 9.5989C27.3823 7.4259 28.9903 5.8469 31.2083 5.8469C32.0463 5.8469 32.7993 6.0829 33.4433 6.5459L35.2063 5.2499L35.0903 5.1499C34.0613 4.2459 32.6873 3.7699 31.1133 3.7699C29.4063 3.7699 27.8573 4.3439 26.7533 5.3849C25.6433 6.4329 25.0293 7.9079 25.0293 9.5379C25.0293 11.1749 25.6393 12.6699 26.7473 13.7519C27.8573 14.8349 29.4033 15.4319 31.0963 15.4319C32.8663 15.4319 34.4163 14.8149 35.4643 13.6929C34.6543 13.0989 33.8743 12.5239 33.8743 12.5239L33.3313 12.8209H33.3303Z" fill="#21A038"/>
<path d="M36.078 23.4669L32.418 29.5009H31.394L27.656 23.5509V31.9999H25.623V20.6479H28.193L31.965 26.8259L35.704 20.6479H38.11V31.9999H36.078V23.4669ZM48.171 27.0829H42.937V30.1309H48.953V31.9959H40.904V20.6449H48.773V22.5089H42.937V25.2179H48.171V27.0829ZM58.931 22.5099H53.241V31.9959H51.21V20.6449H58.932V22.5089L58.931 22.5099ZM69.384 31.9959H67.222L66.134 29.3039H60.916L59.843 31.9959H57.779L62.3951 20.6449H64.703L69.383 31.9949L69.384 31.9959ZM65.384 27.4389L63.514 22.7839L61.6441 27.4389H65.384ZM84.8 23.4659L81.14 29.4999H80.117L76.378 23.5499V31.9979H74.346V20.6479H76.916L80.688 26.8249L84.426 20.6479H86.833V31.9979H84.8V23.4659V23.4659ZM99.87 31.9959H97.71L96.618 29.3039H91.401L90.327 31.9959H88.264L92.88 20.6449H95.188L99.871 31.9949L99.87 31.9959ZM95.873 27.4389L94.004 22.7839L92.134 27.4389H95.874H95.873ZM103.351 28.4619V31.9999H101.318V20.6479H105.105C106.904 20.6479 108.208 20.9699 109.015 21.6119C109.822 22.2539 110.227 23.2159 110.227 24.4889C110.227 25.8189 109.794 26.8139 108.925 27.4729C108.059 28.1319 106.786 28.4629 105.105 28.4629H103.351V28.4619ZM103.351 22.5089V26.5949H105.254C106.207 26.5949 106.924 26.4299 107.399 26.1019C107.877 25.7709 108.113 25.2179 108.113 24.4389C108.113 23.7379 107.891 23.2389 107.447 22.9469C107.002 22.6549 106.283 22.5089 105.285 22.5089H103.351ZM114.337 31.9959H112.305V20.6449H114.337V25.4119H116.043L119.701 20.6449H122.172L117.831 26.0449L122.872 31.9949H120.271L116.142 27.0829H114.337V31.9959ZM131.587 27.0829H126.353V30.1309H132.369V31.9959H124.32V20.6449H132.189V22.5089H126.353V25.2179H131.587V27.0829V27.0829ZM143.078 22.5099H139.241V31.9959H137.208V22.5089H133.436V20.6449H143.075V22.5089H143.078V22.5099Z" fill="#632895"/>
</g>
<defs>
<linearGradient id="paint0_linear" x1="2.76036" y1="16.301" x2="0.507358" y2="9.77" gradientUnits="userSpaceOnUse">
<stop offset="0.144" stop-color="#F2E913"/>
<stop offset="0.304" stop-color="#E7E518"/>
<stop offset="0.582" stop-color="#CADB26"/>
<stop offset="0.891" stop-color="#A3CD39"/>
</linearGradient>
<linearGradient id="paint1_linear" x1="3.63405" y1="2.73695" x2="9.39905" y2="0.534954" gradientUnits="userSpaceOnUse">
<stop offset="0.059" stop-color="#0FA8E0"/>
<stop offset="0.538" stop-color="#0099F9"/>
<stop offset="0.923" stop-color="#0291EB"/>
</linearGradient>
<linearGradient id="paint2_linear" x1="9.18503" y1="17.515" x2="16.053" y2="15.959" gradientUnits="userSpaceOnUse">
<stop offset="0.123" stop-color="#A3CD39"/>
<stop offset="0.285" stop-color="#86C339"/>
<stop offset="0.869" stop-color="#21A038"/>
</linearGradient>
<linearGradient id="paint3_linear" x1="9.3475" y1="1.57794" x2="15.0595" y2="3.34494" gradientUnits="userSpaceOnUse">
<stop offset="0.057" stop-color="#0291EB"/>
<stop offset="0.79" stop-color="#0C8ACB"/>
</linearGradient>
<linearGradient id="paint4_linear" x1="3.22597" y1="16.5879" x2="9.36197" y2="18.8859" gradientUnits="userSpaceOnUse">
<stop offset="0.132" stop-color="#F2E913"/>
<stop offset="0.298" stop-color="#EBE716"/>
<stop offset="0.531" stop-color="#D9E01F"/>
<stop offset="0.802" stop-color="#BBD62D"/>
<stop offset="0.983" stop-color="#A3CD39"/>
</linearGradient>
<linearGradient id="paint5_linear" x1="1.87676" y1="10.0509" x2="4.31376" y2="3.69793" gradientUnits="userSpaceOnUse">
<stop offset="0.07" stop-color="#A3CD39"/>
<stop offset="0.26" stop-color="#81C55F"/>
<stop offset="0.922" stop-color="#0FA8E0"/>
</linearGradient>
<clipPath id="clip0">
<rect width="143" height="36" fill="white"/>
</clipPath>
</defs>
</svg>
