<svg width="65" height="53" viewBox="0 0 65 53" fill="none" xmlns="http://www.w3.org/2000/svg">
<path opacity="0.15" d="M50.9025 2.15047L50.3001 1.7764L49.7478 2.22111C44.806 6.20024 40.6908 11.508 37.3879 18.1131C34.0154 24.795 32.3125 31.448 32.3125 38.0625V51V52H33.3125H53.2812H54.2812V51V36.1978C54.4663 27.289 57.3017 18.8234 62.8242 10.785L63.4173 9.92174L62.5275 9.36922L50.9025 2.15047ZM19.59 2.15047L18.9876 1.7764L18.4353 2.22111C13.4933 6.2004 9.37793 11.5085 6.07502 18.1139C2.70272 24.7955 1 31.4482 1 38.0625V51V52H2H21.9688H22.9688V51V36.1979C23.1538 27.289 25.9892 18.8234 31.5117 10.785L32.1048 9.92174L31.215 9.36922L19.59 2.15047Z" stroke="#560009" stroke-width="2"/>
</svg>
