<svg width="42" height="34" viewBox="0 0 42 34" fill="none" xmlns="http://www.w3.org/2000/svg">
<path opacity="0.15" fill-rule="evenodd" clip-rule="evenodd" d="M35.8315 34H20.6696V24.4379C20.6696 19.9984 21.809 15.5415 24.0551 11.0765C26.2528 6.66707 28.997 3.11175 32.3019 0.441803L32.8488 0L42 5.7016L41.4127 6.55923C37.8011 11.8338 35.9529 17.3774 35.8315 23.2063V34ZM33.8512 32.0131V23.1858L33.8514 23.1756C33.9728 17.2438 35.7678 11.6137 39.2048 6.29894L33.0061 2.43689C30.1914 4.84864 27.794 8.01671 25.8253 11.9671L25.8236 11.9705C23.6969 16.1979 22.65 20.3505 22.65 24.4379V32.0131H33.8512ZM15.1619 34L0 34V24.4379C0 19.9987 1.13928 15.5421 3.38503 11.0774C5.58279 6.66751 8.3272 3.11191 11.6323 0.441803L12.1791 0L21.3304 5.7016L20.7431 6.55923C17.1315 11.8337 15.2832 17.3774 15.1619 23.2063V34ZM13.1815 32.0131V23.1858L13.1817 23.1756C13.3032 17.2438 15.0981 11.6137 18.5352 6.29894L12.3365 2.43689C9.52182 4.84864 7.12433 8.01671 5.1557 11.9671L5.15401 11.9705C3.02728 16.1979 1.98032 20.3505 1.98032 24.4379V32.0131L13.1815 32.0131Z" fill="#FCEACF"/>
</svg>
