<svg width="128" height="40" viewBox="0 0 128 40" fill="none" xmlns="http://www.w3.org/2000/svg">
<g clip-path="url(#clip0)">
<path d="M14.8996 29.8999C9.99963 30.4999 5.89963 26.3999 6.49963 21.5999C6.89963 18.2999 9.59963 15.5999 12.8996 15.1999C17.7996 14.5999 21.8996 18.6999 21.2996 23.4999C20.8996 26.7999 18.2996 29.4999 14.8996 29.8999ZM15.3996 8.69994C6.49963 7.79994 -0.800372 15.1999 0.099628 23.9999C0.799628 30.4999 6.09963 35.7999 12.5996 36.3999C21.3996 37.2999 28.7996 29.8999 27.8996 21.0999C27.1996 14.5999 21.8996 9.29994 15.3996 8.69994Z" fill="#0054FF"/>
<path d="M35.2996 9.19995C33.2996 9.19995 31.6996 11 32.0996 13.1C32.3996 14.6 33.8996 15.7 35.3996 15.7H44.4996L30.3996 34.4C29.8996 35 30.3996 35.9 31.0996 35.9H53.2996C54.8996 35.9 56.2996 34.7999 56.5996 33.2999C56.9996 31.1999 55.3996 29.4 53.3996 29.4H42.2996L56.3996 10.7C56.8996 10.1 56.3996 9.19995 55.5996 9.19995H35.2996Z" fill="#0054FF"/>
<path d="M124 9.10005C122.5 9.40005 121.5 10.8 121.5 12.4V23.2001L103.8 9.20005C103.2 8.70005 102.3 9.20005 102.3 9.90005V32.3C102.3 33.8 103.3 35.2 104.9 35.6C107 36 108.9 34.4001 108.9 32.4001V21.5L126.6 35.5C127.2 36 128.1 35.5 128.1 34.8V12.3C128 10.3 126.1 8.70005 124 9.10005Z" fill="#0054FF"/>
<path d="M78.0996 8.5C67.2996 8.5 58.5996 14.8 58.5996 22.5C58.5996 30.2 67.3996 36.4 78.1996 36.4C88.9996 36.4 97.6996 30.1 97.6996 22.4C97.5996 14.7 88.8996 8.5 78.0996 8.5ZM78.0996 15C85.5996 15 91.0996 18.9 91.0996 22.4C91.0996 25.9 85.4996 29.9 78.0996 29.9C70.5996 29.9 65.0996 26 65.0996 22.5C65.0996 18.9 70.6996 15 78.0996 15Z" fill="#0054FF"/>
<path d="M90.8002 23.9C89.5002 26.9 84.5002 29.8 78.1002 29.8C71.7002 29.8 66.7002 26.9 65.4002 23.9H58.7002C59.7002 30.9 68.1002 36.4 78.2002 36.3C88.3002 36.3 96.5002 30.8 97.6002 23.9H90.8002Z" fill="#0054FF"/>
</g>
<defs>
<clipPath id="clip0">
<rect width="128" height="40" fill="white"/>
</clipPath>
</defs>
</svg>
