<svg width="320" height="54" viewBox="0 0 320 54" fill="none" xmlns="http://www.w3.org/2000/svg">
<path d="M284.87 17.234C292.37 17.234 299.87 17.234 307.38 17.234C307.38 19.004 307.38 20.774 307.38 22.544H299.47V45.684H292.77V22.534H284.86C284.86 20.7607 284.86 18.9907 284.86 17.224L284.87 17.234ZM252.47 17.294C254.71 17.144 256.96 17.294 259.22 17.244C256.16 21.644 252.91 25.924 249.83 30.304C253.25 35.504 257.02 40.514 260.54 45.674H252.9C249.62 40.994 246.27 36.364 242.96 31.674C242.96 36.334 242.96 40.984 242.96 45.674C240.71 45.674 238.46 45.674 236.22 45.674C236.22 36.194 236.22 26.674 236.22 17.234C238.46 17.234 240.7 17.234 242.94 17.234C242.94 21.604 242.94 25.974 242.94 30.344C246.1 25.994 249.21 21.614 252.42 17.294H252.47ZM268.93 23.394C267.57 24.874 267.39 26.984 267.23 28.894H276.67C276.6 26.664 276.57 23.894 274.48 22.544C273.591 22.0455 272.561 21.8583 271.554 22.0123C270.547 22.1664 269.62 22.6527 268.92 23.394H268.93ZM262.7 21.724C263.509 20.4003 264.605 19.2749 265.906 18.4304C267.208 17.5858 268.682 17.0438 270.22 16.844C273.159 16.3044 276.193 16.8291 278.78 18.324C280.678 19.6377 282.046 21.5838 282.64 23.814C283.64 27.054 283.47 30.494 283.49 33.814C278.07 33.814 272.65 33.814 267.23 33.814C267.42 35.814 267.75 38.034 269.36 39.424C270.97 40.814 273.36 40.994 275.47 40.834C278.196 40.5663 280.829 39.6989 283.18 38.294C283.18 40.114 283.18 41.944 283.18 43.764C279.527 45.8561 275.273 46.6524 271.11 46.024C269.581 45.8811 268.095 45.4373 266.737 44.7183C265.38 43.9992 264.178 43.0191 263.2 41.834C261.2 39.244 260.46 35.834 260.33 32.634C260.2 28.874 260.69 24.924 262.7 21.634V21.724ZM217.9 22.154C215.9 22.554 214.67 24.464 214.17 26.314C213.536 29.1496 213.417 32.0764 213.82 34.954C214.1 36.954 214.76 39.314 216.68 40.424C218.92 41.504 222.06 40.914 223.36 38.664C224.66 36.414 224.76 33.794 224.82 31.304C224.88 28.814 224.63 25.994 223.15 23.804C222.04 22.114 219.75 21.694 217.9 22.144V22.154ZM218.1 17.154C219.743 16.6181 221.5 16.5349 223.186 16.9133C224.871 17.2916 226.424 18.1175 227.68 19.304C230.44 21.964 231.45 25.904 231.68 29.614C231.92 33.774 231.45 38.224 229.13 41.794C228.156 43.2634 226.81 44.4489 225.229 45.2304C223.649 46.0119 221.89 46.3616 220.13 46.244C218.814 46.149 217.537 45.7502 216.401 45.0787C215.264 44.4072 214.299 43.4814 213.58 42.374C213.58 46.204 213.58 50.034 213.58 53.864H206.89C206.89 41.664 206.89 29.4607 206.89 17.254C208.96 17.254 211.03 17.254 213.1 17.254C213.19 18.464 213.31 19.664 213.43 20.874C214.555 19.1715 216.19 17.8692 218.1 17.154V17.154ZM187.5 33.474C185.5 34.524 185.33 37.324 186.18 39.204C187.03 41.084 189.47 41.434 191.31 41.054C192.679 40.813 193.911 40.0761 194.77 38.984C194.77 36.784 194.77 34.584 194.77 32.384C192.34 32.494 189.77 32.284 187.51 33.474H187.5ZM186.45 17.274C190.03 16.604 193.92 16.484 197.32 17.974C199.91 19.154 201.25 21.974 201.4 24.734C201.64 31.734 201.14 38.734 201.8 45.734H195.19C195 44.954 194.82 44.164 194.67 43.384C193.201 44.887 191.251 45.828 189.16 46.044C186.31 46.374 183.08 45.864 181.07 43.654C179.06 41.444 178.47 38.144 178.98 35.234C179.258 33.9942 179.832 32.8403 180.654 31.8718C181.477 30.9032 182.522 30.149 183.7 29.674C187.15 28.094 191.03 27.954 194.77 27.984C194.77 26.344 194.97 24.354 193.62 23.144C192.06 21.994 189.96 22.144 188.14 22.354C185.537 22.6818 183.041 23.5946 180.84 25.024C180.84 23.184 180.84 21.354 180.84 19.514C182.54 18.431 184.43 17.681 186.41 17.304L186.45 17.274ZM140.8 6.38403H149.8C152.394 16.0307 155.01 25.6707 157.65 35.304C160.33 25.674 162.95 16.014 165.65 6.38403C168.65 6.38403 171.55 6.38403 174.51 6.38403C174.51 19.4907 174.51 32.5974 174.51 45.704C172.36 45.704 170.22 45.704 168.07 45.704C168.07 35.884 168.07 26.0607 168.07 16.234C165.28 26.014 162.73 35.874 160.07 45.694H154.42C151.77 35.854 149.04 26.044 146.48 16.194C146.28 26.024 146.48 35.864 146.39 45.694H140.78C140.78 32.594 140.78 19.484 140.78 6.37402L140.8 6.38403Z" fill="black"/>
<path d="M93.4304 27.7841C98.5004 20.8741 103.43 13.8541 108.43 6.90405L115.24 9.62405C116.24 10.1141 117.52 10.3141 118.34 11.0441C117.48 15.3341 116.34 19.5841 115.45 23.8641C118.54 21.3141 121.59 18.7041 124.68 16.1441C126.183 19.6084 126.868 23.3724 126.68 27.1441C121.58 31.7041 116.57 36.3741 111.42 40.8741C108.807 39.4874 106.16 38.1541 103.48 36.8741C104.487 32.8741 105.487 28.8941 106.48 24.9341C101.76 31.8641 97.2004 38.9341 92.4804 45.8441C89.1504 44.4941 85.8104 43.1741 82.4804 41.8441C83.4804 37.8441 84.4804 33.8441 85.4804 29.8441C83.0537 33.0774 80.6337 36.3174 78.2204 39.5641C76.3013 36.4758 75.0827 33.0043 74.6504 29.3941C78.7704 24.4841 82.8304 19.5141 86.9004 14.5741C87.1504 14.3441 87.4104 13.7541 87.8304 14.0741C90.4004 15.3041 92.9404 16.6041 95.4904 17.9041C94.8004 21.1841 94.1604 24.4841 93.4904 27.7741L93.4304 27.7841Z" fill="black"/>
<path d="M92.3901 45.894C97.1201 38.964 101.68 31.894 106.39 24.984C105.403 28.984 104.403 32.964 103.39 36.924C106.057 38.1907 108.703 39.524 111.33 40.924C116.49 36.424 121.49 31.754 126.59 27.194C126.36 32.8056 124.327 38.1936 120.793 42.5586C117.259 46.9237 112.412 50.0333 106.971 51.4264C101.53 52.8194 95.7849 52.4216 90.588 50.292C85.391 48.1624 81.0189 44.4145 78.1201 39.604C80.5335 36.3574 82.9535 33.1174 85.3801 29.884C84.3801 33.884 83.3801 37.884 82.3801 41.884C85.7101 43.224 89.0501 44.544 92.3801 45.884L92.3901 45.894Z" fill="#FED104"/>
<path d="M88.7004 2.83401C91.9138 1.20218 95.4299 0.252227 99.028 0.0437767C102.626 -0.164673 106.228 0.372878 109.609 1.6227C112.989 2.87251 116.075 4.80762 118.672 7.30653C121.269 9.80545 123.321 12.8142 124.7 16.144C121.61 18.704 118.56 21.314 115.47 23.864C116.4 19.584 117.47 15.344 118.36 11.044C117.54 10.304 116.27 10.104 115.26 9.62401L108.45 6.90401C103.45 13.844 98.5104 20.904 93.4504 27.784C94.1104 24.494 94.7504 21.194 95.4504 17.914C92.9104 16.614 90.3604 15.314 87.7904 14.084C87.3704 13.764 87.1103 14.354 86.8603 14.584C82.7803 19.524 78.7303 24.494 74.6103 29.404C74.0434 24.7388 74.716 20.0065 76.5603 15.684C78.9931 10.1117 83.2984 5.56581 88.7304 2.83401H88.7004Z" fill="#FED104"/>
<path d="M38 52.004C52.3594 52.004 64 40.3634 64 26.004C64 11.6446 52.3594 0.00402832 38 0.00402832C23.6406 0.00402832 12 11.6446 12 26.004C12 40.3634 23.6406 52.004 38 52.004Z" fill="#FC3F1D"/>
<path d="M48 42.004H41.9509V14.3356H39.2561C34.3166 14.3356 31.7292 16.6197 31.7292 20.0292C31.7292 23.8973 33.5138 25.6896 37.2056 27.9736L40.2481 29.8698L31.5042 41.9993H25L32.8695 31.1703C28.3442 28.1817 25.7977 25.264 25.7977 20.3413C25.7977 14.189 30.4355 10.004 39.2152 10.004H47.9591V41.9946H48V42.004Z" fill="white"/>
</svg>
